<svg width="977" height="733" viewBox="0 0 977 733" fill="none" xmlns="http://www.w3.org/2000/svg">
<path d="M199.512 59.1719V69.7188H71.7188C47.3438 70.1875 31.9922 83.1953 25.6641 108.742C19.3359 134.289 36.0938 165.578 75.9375 202.609C105.469 231.672 97.9688 246.789 53.4375 247.961H10.5469V237.414H53.4375C86.6016 238.352 90.8203 229.094 66.0938 209.641C25.3125 172.141 7.96875 137.688 14.0625 106.281C20.1562 74.875 39.375 59.1719 71.7188 59.1719H199.512ZM199.512 134.758H148.359C118.242 133.82 113.789 142.141 135 159.719C172.969 193 191.602 225.344 190.898 256.75C190.195 288.156 171.562 306.906 135 313H10.5469V302.453H135C165.938 295.891 180.938 279.016 180 251.828C179.062 224.641 158.438 193.938 118.125 159.719C99.375 135.344 109.453 123.508 148.359 124.211H199.512V134.758ZM280.195 302.453H341.719V124.211H422.227V134.758H352.266V313H269.648V134.758H199.688V124.211H280.195V302.453ZM199.688 59.1719L422.227 59.3477V69.7188H199.688V59.1719ZM432.773 302.453H497.812L513.984 256.75H603.281L619.453 302.453H684.492V313H612.422L596.25 267.297H521.016L504.844 313H432.773V302.453ZM682.383 237.414H684.492V247.961H673.945L616.641 69.7188H505.898L443.672 247.961H432.773V237.414H434.883L497.109 59.1719H625.43L682.383 237.414ZM560.566 111.73L596.602 215.969H521.719L560.566 111.73ZM538.242 205.422H580.078L560.742 148.82L538.242 205.422ZM695.039 69.7188V59.1719H860.273C880.664 61.0469 897.012 66.0859 909.316 74.2891C921.621 82.4922 930 90.4023 934.453 98.0195C938.906 105.637 942.07 114.953 943.945 125.969C945.82 136.984 944.59 148.996 940.254 162.004C935.918 175.012 928.477 185.617 917.93 193.82C907.383 202.023 892.266 208.469 872.578 213.156L891.562 237.414H956.953V247.961H885.41L862.031 219.309V204.543C886.172 199.621 902.637 193.469 911.426 186.086C920.332 178.703 926.602 169.68 930.234 159.016C933.984 148.352 935.156 138.156 933.75 128.43C932.461 118.703 929.941 110.676 926.191 104.348C922.559 97.9023 915.176 90.9297 904.043 83.4297C892.91 75.9297 878.32 71.3594 860.273 69.7188H695.039ZM782.402 118.059H853.418C856.582 118.059 860.449 119.934 865.02 123.684C869.59 127.316 872.285 134.934 873.105 146.535C872.637 158.605 870.176 166.164 865.723 169.211C861.387 172.258 857.344 173.781 853.594 173.781H782.402V118.059ZM793.301 128.254V164.113H847.617C850.43 164.113 853.535 163.176 856.934 161.301C860.449 159.309 862.324 154.328 862.559 146.359C861.973 139.094 859.863 134.289 856.23 131.945C852.715 129.484 849.785 128.254 847.441 128.254H793.301ZM695.039 302.453H776.25V218.605H793.301L873.457 302.453H956.953V313H867.305L786.797 229.152V313H695.039V302.453ZM705.586 124.211V247.961H695.039V124.211H705.586ZM90.3516 417.18H143.438C155.742 417.18 165.703 419.641 173.32 424.562C180.938 429.367 187.148 436.105 191.953 444.777C196.875 453.449 199.57 466.867 200.039 485.031C198.633 504.836 195.586 518.605 190.898 526.34C186.328 533.957 180.352 540.227 172.969 545.148C165.586 550.07 155.859 552.531 143.789 552.531H90.3516V417.18ZM10.5469 602.453H156.094C184.219 601.75 204.316 598.996 216.387 594.191C228.457 589.387 238.477 583.293 246.445 575.91C254.414 568.527 261.797 557.629 268.594 543.215C275.391 528.801 279.141 509.758 279.844 486.086C278.906 463.352 277.207 448.645 274.746 441.965C272.285 435.285 269.121 428.137 265.254 420.52C261.387 412.902 255.352 405.109 247.148 397.141C238.945 389.172 227.52 382.492 212.871 377.102C198.223 371.711 180.703 369.25 160.312 369.719H10.5469V359.172H160.312C180.586 359.172 198.516 361.691 214.102 366.73C229.805 371.77 242.871 379.035 253.301 388.527C263.848 398.02 272.637 410.559 279.668 426.145C286.816 441.73 290.391 461.711 290.391 486.086C289.102 509.758 285.234 529.68 278.789 545.852C272.344 562.023 263.789 574.797 253.125 584.172C242.461 593.547 229.395 600.812 213.926 605.969C198.574 611.125 179.297 613.469 156.094 613H10.5469V602.453ZM100.898 427.727L101.074 541.984H143.789C155.859 541.633 164.707 539.23 170.332 534.777C175.957 530.324 180.176 525.52 182.988 520.363C185.918 515.207 188.086 503.43 189.492 485.031C188.438 469.562 186.328 458.547 183.164 451.984C180 445.305 175.488 439.68 169.629 435.109C163.887 430.422 155.156 427.961 143.438 427.727H100.898ZM10.5469 547.961V424.211H21.0938V547.961H10.5469ZM385.312 359.172V509.289C384.609 526.398 387.891 538.293 395.156 544.973C402.422 551.652 413.789 555.227 429.258 555.695C441.68 555.461 452.051 551.828 460.371 544.797C468.691 537.766 472.617 525.93 472.148 509.289V359.172H554.766V369.719H482.695V509.289C483.398 527.102 479.531 540.637 471.094 549.895C462.656 559.152 448.711 564.602 429.258 566.242C408.867 565.539 394.57 560.617 386.367 551.477C378.164 542.336 374.297 528.273 374.766 509.289V369.719H302.695V359.172H385.312ZM544.219 424.211H554.766V508.059C554.414 529.152 550.898 546.027 544.219 558.684C537.656 571.223 529.277 581.711 519.082 590.148C509.004 598.586 496.289 605.148 480.938 609.836C465.703 614.523 448.711 617.102 429.961 617.57C414.375 617.219 398.496 615.109 382.324 611.242C366.27 607.258 352.207 601.047 340.137 592.609C328.184 584.172 318.926 573.332 312.363 560.09C305.918 546.848 302.695 529.562 302.695 508.234V424.211H313.242V508.234C314.414 529.094 317.637 544.738 322.91 555.168C328.184 565.598 336.152 574.797 346.816 582.766C357.48 590.734 370.312 596.652 385.312 600.52C400.312 604.387 415.195 606.555 429.961 607.023C447.539 606.32 463.594 603.684 478.125 599.113C492.656 594.543 504.316 588.449 513.105 580.832C521.895 573.215 529.16 564.191 534.902 553.762C540.645 543.332 543.75 528.098 544.219 508.059V424.211ZM754.277 359.172V369.719H626.484C602.109 370.188 586.758 383.195 580.43 408.742C574.102 434.289 590.859 465.578 630.703 502.609C660.234 531.672 652.734 546.789 608.203 547.961H565.312V537.414H608.203C641.367 538.352 645.586 529.094 620.859 509.641C580.078 472.141 562.734 437.688 568.828 406.281C574.922 374.875 594.141 359.172 626.484 359.172H754.277ZM754.277 434.758H703.125C673.008 433.82 668.555 442.141 689.766 459.719C727.734 493 746.367 525.344 745.664 556.75C744.961 588.156 726.328 606.906 689.766 613H565.312V602.453H689.766C720.703 595.891 735.703 579.016 734.766 551.828C733.828 524.641 713.203 493.938 672.891 459.719C654.141 435.344 664.219 423.508 703.125 424.211H754.277V434.758ZM834.961 602.453H896.484V424.211H976.992V434.758H907.031V613H824.414V434.758H754.453V424.211H834.961V602.453ZM754.453 359.172L976.992 359.348V369.719H754.453V359.172Z" fill="#F9E219"/>
<path d="M99.875 666H111.125V677.25H99.875V666ZM99.875 694.125H111.125V705.375H99.875V694.125ZM139.25 666H144.875V660.375H150.5V654.75H195.5V660.375H201.125V666H206.75V677.25H201.125V682.875H195.5V688.5H150.5V682.875H144.875V677.25H139.25V666ZM150.5 666V677.25H156.125V682.875H189.875V677.25H195.5V666H189.875V660.375H156.125V666H150.5ZM133.625 694.125H212.375V699.75H178.625V722.25H167.375V699.75H133.625V694.125ZM229.25 654.75H296.75V660.375H268.625V671.625H274.25V677.25H279.875V682.875H296.75V688.5H274.25V682.875H268.625V677.25H257.375V682.875H251.75V688.5H229.25V682.875H246.125V677.25H251.75V671.625H257.375V660.375H229.25V654.75ZM223.625 694.125H302.375V699.75H268.625V722.25H257.375V699.75H223.625V694.125ZM313.625 649.125H358.625V682.875H353V688.5H319.25V682.875H313.625V649.125ZM324.875 654.75V682.875H347.375V654.75H324.875ZM358.625 666H375.5V649.125H386.75V688.5H375.5V671.625H358.625V666ZM319.25 694.125H330.5V716.625H386.75V722.25H324.875V716.625H319.25V694.125ZM403.625 654.75H448.625V660.375H431.75V699.75H437.375V705.375H443V711H448.625V716.625H437.375V711H431.75V705.375H420.5V711H414.875V716.625H403.625V711H409.25V705.375H414.875V699.75H420.5V660.375H403.625V654.75ZM465.5 649.125H476.75V722.25H465.5V649.125ZM499.25 649.125H566.75V654.75H510.5V671.625H566.75V677.25H504.875V671.625H499.25V649.125ZM493.625 682.875H572.375V688.5H493.625V682.875ZM499.25 694.125H566.75V711H510.5V716.625H566.75V722.25H504.875V716.625H499.25V705.375H555.5V699.75H499.25V694.125ZM583.625 666H589.25V660.375H594.875V654.75H617.375V660.375H623V666H628.625V682.875H623V688.5H617.375V694.125H594.875V688.5H589.25V682.875H583.625V666ZM594.875 666V682.875H600.5V688.5H611.75V682.875H617.375V666H611.75V660.375H600.5V666H594.875ZM583.625 711H645.5V649.125H656.75V722.25H645.5V716.625H583.625V711ZM724.25 649.125H791.75V654.75H735.5V671.625H791.75V677.25H729.875V671.625H724.25V649.125ZM718.625 682.875H797.375V688.5H718.625V682.875ZM724.25 699.75H735.5V694.125H780.5V699.75H791.75V716.625H780.5V722.25H735.5V716.625H724.25V699.75ZM735.5 705.375V711H741.125V716.625H774.875V711H780.5V705.375H774.875V699.75H741.125V705.375H735.5ZM808.625 649.125H853.625V654.75H836.75V671.625H842.375V677.25H848V682.875H853.625V688.5H842.375V682.875H836.75V677.25H825.5V682.875H819.875V688.5H808.625V682.875H814.25V677.25H819.875V671.625H825.5V654.75H808.625V649.125ZM864.875 649.125H876.125V666H893V671.625H876.125V688.5H864.875V649.125ZM814.25 699.75H825.5V694.125H864.875V699.75H876.125V716.625H864.875V722.25H825.5V716.625H814.25V699.75ZM825.5 705.375V711H831.125V716.625H859.25V711H864.875V705.375H859.25V699.75H831.125V705.375H825.5Z" fill="white"/>
</svg>
